<mxfile host="app.diagrams.net" modified="2020-07-03T12:35:02.022Z" agent="5.0 (Windows NT 10.0; Win64; x64) AppleWebKit/537.36 (KHTML, like Gecko) Chrome/83.0.4103.116 Safari/537.36" etag="ucinM9CV0fd9e1I0xTG3" version="13.3.7" type="github">
  <diagram id="C5RBs43oDa-KdzZeNtuy" name="Page-1">
    <mxGraphModel dx="1038" dy="580" grid="1" gridSize="10" guides="1" tooltips="1" connect="1" arrows="1" fold="1" page="1" pageScale="1" pageWidth="827" pageHeight="1169" math="0" shadow="0">
      <root>
        <mxCell id="WIyWlLk6GJQsqaUBKTNV-0" />
        <mxCell id="WIyWlLk6GJQsqaUBKTNV-1" parent="WIyWlLk6GJQsqaUBKTNV-0" />
        <mxCell id="G_LtqzB8PGayeKmqLbbJ-5" style="edgeStyle=orthogonalEdgeStyle;rounded=0;orthogonalLoop=1;jettySize=auto;html=1;exitX=1;exitY=0.5;exitDx=0;exitDy=0;entryX=0;entryY=0.5;entryDx=0;entryDy=0;fillColor=#d5e8d4;strokeColor=#82b366;" parent="WIyWlLk6GJQsqaUBKTNV-1" source="G_LtqzB8PGayeKmqLbbJ-1" target="G_LtqzB8PGayeKmqLbbJ-3" edge="1">
          <mxGeometry relative="1" as="geometry" />
        </mxCell>
        <mxCell id="G_LtqzB8PGayeKmqLbbJ-8" style="edgeStyle=orthogonalEdgeStyle;rounded=0;orthogonalLoop=1;jettySize=auto;html=1;exitX=0;exitY=0.5;exitDx=0;exitDy=0;entryX=1;entryY=0.5;entryDx=0;entryDy=0;fillColor=#f8cecc;strokeColor=#b85450;" parent="WIyWlLk6GJQsqaUBKTNV-1" source="G_LtqzB8PGayeKmqLbbJ-1" target="G_LtqzB8PGayeKmqLbbJ-7" edge="1">
          <mxGeometry relative="1" as="geometry" />
        </mxCell>
        <mxCell id="G_LtqzB8PGayeKmqLbbJ-1" value="&lt;div&gt;Hello, User! Welcome to the Command Console. What would you like to do today?&lt;/div&gt;&lt;div&gt;&lt;br&gt;&lt;/div&gt;&lt;div&gt;[→] Run an application&lt;/div&gt;&lt;div&gt;[←] Look through some files&lt;/div&gt;&lt;div&gt;[ ↑ ] Start over&lt;/div&gt;" style="text;html=1;strokeColor=#6c8ebf;fillColor=#dae8fc;align=center;verticalAlign=middle;whiteSpace=wrap;rounded=0;" parent="WIyWlLk6GJQsqaUBKTNV-1" vertex="1">
          <mxGeometry x="299" y="30" width="230" height="100" as="geometry" />
        </mxCell>
        <mxCell id="G_LtqzB8PGayeKmqLbbJ-3" value="&lt;div&gt;Which application would you like to open?&lt;/div&gt;&lt;div&gt;&lt;span&gt; &lt;/span&gt;[→] Popular Generic Videogame The Game&lt;/div&gt;&lt;div&gt;&lt;span&gt; &lt;/span&gt;[←] CryptoLocker.exe&lt;/div&gt;&lt;div&gt;&lt;span&gt; &lt;/span&gt;[ ↑ ] Start over&lt;/div&gt;" style="text;html=1;align=center;verticalAlign=middle;whiteSpace=wrap;rounded=0;fillColor=#f5f5f5;strokeColor=#666666;fontColor=#333333;" parent="WIyWlLk6GJQsqaUBKTNV-1" vertex="1">
          <mxGeometry x="559" y="30" width="230" height="100" as="geometry" />
        </mxCell>
        <mxCell id="G_LtqzB8PGayeKmqLbbJ-7" value="&lt;div&gt;Which folders would you like to look through?&lt;/div&gt;&lt;div&gt;&lt;span&gt; &lt;/span&gt;[→] Just the usual Documents and Downloads folders. Maybe clean up the Recycling Bin too.&lt;/div&gt;&lt;div&gt;&lt;span&gt; &lt;/span&gt;[←] System Files&lt;/div&gt;&lt;div&gt;&lt;span&gt; &lt;/span&gt;[ ↑ ] Start over&lt;/div&gt;" style="text;html=1;strokeColor=#666666;fillColor=#f5f5f5;align=center;verticalAlign=middle;whiteSpace=wrap;rounded=0;fontColor=#333333;" parent="WIyWlLk6GJQsqaUBKTNV-1" vertex="1">
          <mxGeometry x="39" y="30" width="230" height="100" as="geometry" />
        </mxCell>
      </root>
    </mxGraphModel>
  </diagram>
</mxfile>
